<svg width="354" height="53" viewBox="0 0 354 53" fill="none" xmlns="http://www.w3.org/2000/svg">
<g clip-path="url(#clip0_184_2164)">
<path d="M126.721 44.7465C126.306 44.7348 125.893 44.8119 125.51 44.9727C125.126 45.1335 124.782 45.3743 124.499 45.679C124.216 45.9838 124.001 46.3455 123.869 46.74C123.737 47.1345 123.69 47.5527 123.731 47.9668C123.688 48.3713 123.731 48.7806 123.859 49.1669C123.987 49.5533 124.195 49.9077 124.471 50.2064C124.747 50.5051 125.083 50.7412 125.458 50.8987C125.832 51.0562 126.236 51.1315 126.642 51.1195C126.971 51.1584 127.304 51.1305 127.622 51.0374C127.939 50.9443 128.235 50.788 128.491 50.5778C128.747 50.3675 128.958 50.1077 129.112 49.8138C129.265 49.52 129.358 49.1981 129.384 48.8676V48.7775H128.002V48.8676C127.965 49.185 127.811 49.4769 127.57 49.6856C127.328 49.8942 127.017 50.0041 126.698 49.9935C125.878 49.9935 125.192 49.3292 125.192 47.7979C125.192 46.2665 125.833 45.681 126.71 45.681C127.033 45.6561 127.353 45.7607 127.599 45.9717C127.846 46.1828 127.999 46.4832 128.024 46.807V46.8971H129.407V46.807C129.374 46.4884 129.277 46.1798 129.122 45.8995C128.967 45.6192 128.758 45.3729 128.506 45.1754C128.255 44.9779 127.966 44.8331 127.657 44.7498C127.348 44.6664 127.026 44.6461 126.71 44.6901L126.721 44.7465Z" fill="#E87575"/>
<path d="M135.071 44.7465C134.437 44.7218 133.81 44.8875 133.271 45.2223C132.732 45.5571 132.306 46.0457 132.046 46.6254C131.786 47.205 131.705 47.8493 131.813 48.4753C131.922 49.1014 132.215 49.6807 132.654 50.1388C133.094 50.5969 133.66 50.9129 134.28 51.0462C134.9 51.1796 135.545 51.1241 136.134 50.887C136.722 50.6499 137.226 50.242 137.582 49.7156C137.937 49.1892 138.127 48.5685 138.127 47.9331C138.167 47.5154 138.116 47.0941 137.978 46.6979C137.84 46.3018 137.618 45.9401 137.328 45.6376C137.038 45.3351 136.686 45.0989 136.297 44.9451C135.907 44.7913 135.489 44.7236 135.071 44.7465ZM135.071 50.0837C134.048 50.0837 133.43 49.2955 133.43 47.9331C133.43 46.5706 134.048 45.7712 135.071 45.7712C136.093 45.7712 136.7 46.5594 136.7 47.9331C136.7 49.3068 136.082 50.0837 135.071 50.0837Z" fill="#E87575"/>
<path d="M146.578 50.9845V44.8704H145.196V47.5953C145.196 48.0456 145.196 48.7212 145.196 49.3743L142.735 44.8704H140.948V50.9845H142.342V48.3271C142.342 47.888 142.342 47.2575 142.286 46.6044L144.679 50.9845H146.578Z" fill="#E87575"/>
<path d="M151.793 44.7465C150.602 44.7465 149.545 45.4108 149.545 46.5593C149.545 47.7078 150.343 48.1582 151.647 48.4847C152.49 48.6874 152.771 48.9802 152.771 49.3968C152.771 49.8134 152.377 50.0836 151.872 50.0836C151.606 50.088 151.347 49.9975 151.141 49.8285C150.935 49.6594 150.796 49.4226 150.748 49.1603H149.343C149.444 50.4777 150.467 51.1195 151.939 51.1195C153.164 51.1195 154.265 50.4777 154.265 49.2842C154.265 48.3158 153.681 47.6853 152.344 47.3587C151.355 47.1335 151.04 46.8858 151.04 46.4242C151.04 45.9625 151.355 45.7711 151.793 45.7711C151.919 45.7666 152.044 45.7873 152.162 45.8321C152.28 45.8769 152.387 45.9449 152.478 46.032C152.569 46.1191 152.642 46.2235 152.692 46.3392C152.743 46.4549 152.769 46.5795 152.771 46.7057H154.164C154.148 46.4211 154.073 46.1429 153.946 45.8881C153.818 45.6333 153.64 45.4072 153.422 45.2238C153.205 45.0404 152.952 44.9035 152.679 44.8214C152.407 44.7393 152.121 44.7138 151.838 44.7465H151.793Z" fill="#E87575"/>
<path d="M162.132 44.8704H160.705V48.6199C160.717 48.751 160.717 48.8829 160.705 49.014C160.676 49.3149 160.536 49.5941 160.313 49.7974C160.089 50.0006 159.798 50.1132 159.497 50.1132C159.195 50.1132 158.904 50.0006 158.681 49.7974C158.457 49.5941 158.318 49.3149 158.289 49.014C158.289 48.9014 158.289 48.7775 158.289 48.6199V44.8704H156.906V48.406C156.906 48.6987 156.906 48.8676 156.906 49.1941C156.985 50.2188 157.693 51.1196 159.491 51.1196C161.289 51.1196 161.997 50.2188 162.065 49.1941C162.081 48.9317 162.081 48.6684 162.065 48.406L162.132 44.8704Z" fill="#E87575"/>
<path d="M169.695 49.8247H166.549V44.8704H165.155V50.9845H169.65L169.695 49.8247Z" fill="#E87575"/>
<path d="M176.101 45.9514V44.8254H170.651V45.9514H172.685V50.9846H174.067V45.9514H176.101Z" fill="#E87575"/>
<path d="M180.023 44.8704H178.63V50.9957H180.023V44.8704Z" fill="#E87575"/>
<path d="M188.733 50.9845V44.8704H187.35V47.5953C187.35 48.0456 187.35 48.7212 187.35 49.3743L184.878 44.8704H183.181V50.9845H184.574V48.3271C184.574 47.888 184.574 47.2575 184.574 46.6044L186.968 50.9845H188.733Z" fill="#E87575"/>
<path d="M194.711 47.8092V48.9352H195.947C195.913 49.2696 195.754 49.5787 195.502 49.8001C195.25 50.0216 194.923 50.139 194.588 50.1288C193.722 50.1288 193.026 49.4644 193.026 47.9331C193.026 46.4018 193.711 45.8162 194.61 45.8162C194.933 45.7914 195.253 45.8959 195.5 46.107C195.746 46.3181 195.899 46.6184 195.925 46.9422V47.0323H197.318V46.9422C197.285 46.6236 197.189 46.315 197.034 46.0347C196.879 45.7544 196.67 45.5082 196.418 45.3106C196.166 45.1131 195.878 44.9684 195.569 44.885C195.26 44.8016 194.938 44.7814 194.621 44.8254C194.203 44.813 193.787 44.8891 193.4 45.0487C193.013 45.2082 192.664 45.4478 192.375 45.7516C192.087 46.0555 191.866 46.4168 191.726 46.8121C191.586 47.2074 191.531 47.6277 191.565 48.0457C191.565 50.0387 192.688 51.1984 194.34 51.1984C194.864 51.2449 195.385 51.0832 195.79 50.748L196.06 50.1063L196.172 51.0633H197.296V47.8881L194.711 47.8092Z" fill="#E87575"/>
<path d="M209.029 47.3475H208.208V46.5818H206.781V47.3475H206.028C205.923 47.3543 205.819 47.3384 205.721 47.3011C205.623 47.2637 205.534 47.2057 205.461 47.1309C205.387 47.0561 205.33 46.9664 205.294 46.8678C205.259 46.7692 205.244 46.6639 205.253 46.5593C205.253 46.0413 205.556 45.7823 206.152 45.7823C206.453 45.7781 206.754 45.8007 207.051 45.8499V44.8478C206.749 44.7787 206.439 44.7485 206.129 44.7577C204.668 44.7577 203.792 45.3883 203.792 46.4917C203.797 46.8141 203.911 47.1252 204.115 47.3746C204.319 47.624 204.601 47.7969 204.915 47.8654C204.52 47.8938 204.15 48.0708 203.879 48.361C203.608 48.6512 203.456 49.0332 203.454 49.4306C203.454 50.7254 204.511 51.1308 205.938 51.1308C206.694 51.137 207.448 51.0577 208.186 50.8943V48.4284H209.029V47.3475ZM204.949 49.2391C204.949 48.7775 205.297 48.4735 205.994 48.4397H206.781V50.0273C206.515 50.0815 206.243 50.1041 205.972 50.0949C205.309 50.0949 204.915 49.9035 204.915 49.2504L204.949 49.2391Z" fill="#E87575"/>
<path d="M218.3 44.9153C217.993 44.8915 217.685 44.8915 217.378 44.9153H215.131V51.0294H216.524V48.7775H217.334C217.64 48.7957 217.948 48.7957 218.255 48.7775C218.724 48.7372 219.159 48.5166 219.469 48.1618C219.779 47.807 219.94 47.3456 219.918 46.8745C219.946 46.4032 219.787 45.94 219.475 45.5857C219.164 45.2314 218.725 45.0147 218.255 44.9829L218.3 44.9153ZM217.817 47.6515H216.569V45.9513H217.817C218.01 45.9903 218.184 46.0952 218.309 46.2481C218.434 46.401 218.502 46.5925 218.502 46.7901C218.502 46.9877 218.434 47.1792 218.309 47.3321C218.184 47.485 218.01 47.5899 217.817 47.629V47.6515Z" fill="#E87575"/>
<path d="M227.212 49.4756C226.913 49.3442 226.663 49.1217 226.497 48.8395C226.332 48.5574 226.26 48.2301 226.291 47.9043C226.322 47.5786 226.455 47.271 226.671 47.0255C226.886 46.7799 227.174 46.6089 227.493 46.5368C227.493 45.4108 226.751 45.0167 225.874 44.9154C225.568 44.8921 225.26 44.8921 224.953 44.9154H222.627V51.0295H224.02V48.5411H225.054C225.515 48.5411 225.773 48.9577 225.852 49.6671C225.895 50.1092 225.993 50.5442 226.144 50.9619H227.661C227.383 50.5066 227.228 49.9866 227.212 49.4531V49.4756ZM224.02 47.5727V45.9513H225.256C225.706 46.0076 226.043 46.1878 226.043 46.7508C226.043 47.3138 225.661 47.4939 225.2 47.5502H224.02V47.5727Z" fill="#E87575"/>
<path d="M233.157 44.7465C232.523 44.724 231.898 44.8916 231.36 45.2279C230.823 45.5641 230.398 46.0536 230.14 46.6335C229.882 47.2134 229.802 47.8574 229.912 48.4827C230.022 49.1081 230.315 49.6863 230.755 50.1433C231.195 50.6003 231.762 50.9152 232.381 51.0475C233.001 51.1799 233.646 51.1237 234.234 50.8862C234.822 50.6486 235.325 50.2406 235.68 49.7144C236.035 49.1883 236.224 48.5679 236.225 47.933C236.264 47.5143 236.213 47.092 236.075 46.695C235.936 46.298 235.713 45.9357 235.422 45.633C235.13 45.3303 234.777 45.0944 234.386 44.9414C233.995 44.7883 233.576 44.7218 233.157 44.7465ZM233.157 50.0836C232.134 50.0836 231.516 49.2954 231.516 47.933C231.516 46.5705 232.134 45.7711 233.157 45.7711C234.179 45.7711 234.786 46.5593 234.786 47.933C234.786 49.3067 234.168 50.0836 233.157 50.0836Z" fill="#E87575"/>
<path d="M243.305 44.8704H241.922V48.5974C241.934 48.8036 241.934 49.0104 241.922 49.2167C241.922 49.7571 241.619 50.0837 241.102 50.0837C240.585 50.0837 240.248 49.8134 240.192 48.9577V48.6649H238.81V48.9577C238.786 49.2534 238.83 49.5505 238.937 49.8272C239.044 50.1038 239.211 50.353 239.427 50.5561C239.642 50.7593 239.901 50.9113 240.183 51.001C240.465 51.0908 240.764 51.1159 241.057 51.0745C242.574 51.0745 243.305 50.3201 243.305 49.2505C243.305 48.8338 243.305 48.6424 243.305 48.3722V44.8704Z" fill="#E87575"/>
<path d="M250.913 49.9036H247.766V48.4623H250.61V47.3364H247.755V45.9514H250.812V44.8254H246.317V50.9395H250.812L250.913 49.9036Z" fill="#E87575"/>
<path d="M256.465 44.7465C256.049 44.7348 255.636 44.8119 255.253 44.9727C254.87 45.1335 254.526 45.3743 254.243 45.679C253.96 45.9838 253.745 46.3455 253.613 46.74C253.48 47.1345 253.434 47.5527 253.475 47.9668C253.432 48.3713 253.475 48.7806 253.603 49.1669C253.73 49.5533 253.939 49.9077 254.215 50.2064C254.491 50.5051 254.827 50.7412 255.202 50.8987C255.576 51.0562 255.98 51.1315 256.386 51.1195C256.715 51.1585 257.049 51.1306 257.367 51.0376C257.686 50.9447 257.982 50.7885 258.239 50.5784C258.496 50.3683 258.708 50.1085 258.863 49.8146C259.017 49.5207 259.111 49.1986 259.139 48.8676V48.7775H257.746V48.8676C257.712 49.184 257.56 49.4759 257.32 49.6847C257.08 49.8936 256.771 50.0039 256.453 49.9935C255.622 49.9935 254.947 49.3292 254.947 47.7979C254.947 46.2665 255.577 45.681 256.465 45.681C256.624 45.6687 256.784 45.6882 256.936 45.7382C257.088 45.7882 257.229 45.8678 257.35 45.9724C257.471 46.0771 257.571 46.2047 257.642 46.3479C257.714 46.4911 257.757 46.6471 257.768 46.807V46.8971H259.162V46.807C259.129 46.4884 259.032 46.1798 258.877 45.8995C258.722 45.6192 258.513 45.3729 258.261 45.1754C258.01 44.9779 257.721 44.8331 257.412 44.7498C257.103 44.6664 256.781 44.6461 256.465 44.6901V44.7465Z" fill="#E87575"/>
<path d="M266.882 45.9514V44.8254H261.421V45.9514H263.455V50.9846H264.837V45.9514H266.882Z" fill="#E87575"/>
<path d="M279.66 44.8704H277.581L276.311 49.6671L275.075 44.8704H272.895V50.9845H274.288V48.2709C274.288 47.6853 274.288 46.8859 274.288 46.2553C274.412 46.8859 274.614 47.6853 274.783 48.2709L275.569 50.9845H277.042L277.806 48.2709C277.986 47.6853 278.188 46.8746 278.311 46.2441C278.311 46.8746 278.311 47.6853 278.311 48.2709V50.9845H279.694L279.66 44.8704Z" fill="#E87575"/>
<path d="M286.167 49.2617L286.729 50.9845H288.235L286.054 44.8704H284.324L282.076 50.9845H283.56L284.122 49.2617H286.167ZM285.178 46.0752L285.83 48.1695H284.526L285.178 46.0752Z" fill="#E87575"/>
<path d="M296.337 50.9845V44.8704H294.955V47.5953C294.955 48.0456 294.955 48.7212 294.955 49.3743L292.483 44.8704H290.707V50.9845H292.19V48.3271C292.19 47.888 292.19 47.2575 292.19 46.6044L294.584 50.9845H296.337Z" fill="#E87575"/>
<path d="M302.833 49.2617L303.395 50.9845H304.901L302.721 44.8704H301.001L298.754 50.9845H300.237L300.799 49.2617H302.833ZM301.844 46.0752L302.496 48.1695H301.181L301.844 46.0752Z" fill="#E87575"/>
<path d="M310.171 47.8092V48.9352H311.419C311.382 49.2685 311.222 49.576 310.971 49.797C310.719 50.018 310.394 50.1364 310.059 50.1287C309.182 50.1287 308.486 49.4644 308.486 47.933C308.486 46.4017 309.171 45.8162 310.07 45.8162C310.231 45.8023 310.392 45.8206 310.545 45.8699C310.699 45.9192 310.841 45.9986 310.963 46.1034C311.085 46.2081 311.186 46.3363 311.258 46.4803C311.331 46.6243 311.374 46.7813 311.385 46.9422V47.0323H312.767V46.9422C312.736 46.6241 312.64 46.3157 312.487 46.0354C312.333 45.7552 312.125 45.5088 311.874 45.3112C311.623 45.1136 311.335 44.9687 311.027 44.8852C310.719 44.8017 310.398 44.7813 310.082 44.8254C309.662 44.8113 309.245 44.8862 308.856 45.0451C308.468 45.2039 308.118 45.4432 307.828 45.7473C307.538 46.0513 307.316 46.4132 307.176 46.8093C307.035 47.2054 306.98 47.6267 307.014 48.0456C307.014 50.0386 308.137 51.1984 309.789 51.1984C310.316 51.2443 310.84 51.0827 311.25 50.748L311.52 50.1062L311.632 51.0633H312.756V47.888L310.171 47.8092Z" fill="#E87575"/>
<path d="M320.286 49.9036H317.139V48.4623H319.994V47.3364H317.139V45.9514H320.196V44.8254H315.701V50.9395H320.196L320.286 49.9036Z" fill="#E87575"/>
<path d="M329.894 44.8704H327.77L326.545 49.6671L325.309 44.8704H323.129V50.9845H324.522V48.2709C324.522 47.6853 324.522 46.8859 324.522 46.2553C324.646 46.8859 324.848 47.6853 325.017 48.2709L325.804 50.9845H327.276L328.04 48.2709C328.22 47.6853 328.422 46.8746 328.546 46.2441C328.546 46.8746 328.546 47.6853 328.546 48.2709V50.9845H329.928L329.894 44.8704Z" fill="#E87575"/>
<path d="M337.57 49.9036H334.412V48.4623H337.266V47.3364H334.412V45.9514H337.48V44.8254H332.985V50.9395H337.48L337.57 49.9036Z" fill="#E87575"/>
<path d="M345.998 50.9845V44.8704H344.616V47.5953C344.616 48.0456 344.616 48.7212 344.616 49.3743L342.155 44.8704H340.368V50.9845H341.762V48.3271C341.762 47.888 341.762 47.2575 341.762 46.6044L344.155 50.9845H345.998Z" fill="#E87575"/>
<path d="M354 45.9514V44.8254H348.538V45.9514H350.629V50.9846H352.011V45.9514H354Z" fill="#E87575"/>
<path d="M145.904 26.0214L148.972 35.5247H157.243L145.275 1.90283H135.835L123.731 35.5134H131.845L134.958 26.0101L145.904 26.0214ZM140.476 8.51238L144.027 20.0199H136.88L140.476 8.51238Z" fill="#2C5697"/>
<path d="M203.174 1.8916H191.497L184.754 28.2509L178.011 1.8916H166.009V35.5134H173.64V20.6054C173.64 17.3401 173.64 12.9487 173.55 9.49198C174.179 12.9487 175.292 17.3739 176.225 20.5491L180.551 35.5134H188.62L192.857 20.5491C193.835 17.3401 194.947 12.9037 195.633 9.44693C195.532 12.9037 195.532 17.3288 195.532 20.6054V35.5134H203.174V1.8916Z" fill="#2C5697"/>
<path d="M232.415 2.1282C230.751 1.94717 229.077 1.86821 227.403 1.89175H215.288V35.5136H222.93V23.2404H227.425C229.1 23.2605 230.773 23.1777 232.438 22.9927C235.016 22.7879 237.414 21.5846 239.122 19.638C240.83 17.6914 241.713 15.1547 241.585 12.566C241.585 6.17046 237.45 2.71371 232.438 2.1282H232.415ZM229.785 17.1375C228.897 17.23 228.003 17.2639 227.111 17.2389H222.93V7.88199H227.111C228.003 7.85699 228.897 7.89084 229.785 7.98332C232.033 8.27608 233.584 9.68353 233.584 12.566C233.584 15.4486 232.078 16.8448 229.785 17.1375Z" fill="#2C5697"/>
<path d="M276.053 29.5233H258.791V21.6414H274.446V15.6962H258.791V7.81433H275.569V1.86914H251.149V35.491H276.053V29.5233Z" fill="#2C5697"/>
<path d="M311.812 27.1474C311.43 23.2515 310.115 20.5716 306.71 19.2655C310.936 18.0494 313.374 15.2683 313.374 10.9783C313.374 5.07811 309.34 2.64597 304.474 2.06046C302.794 1.8806 301.105 1.80165 299.417 1.82401H286.673V35.4458H294.303V22.3056H297.326C298.248 22.3056 299.068 22.3056 300.001 22.3056C302.53 22.5083 303.934 24.6477 304.373 28.3071C304.597 30.7537 305.137 33.1609 305.98 35.4684H314.296C312.936 33.5204 312.25 31.0883 311.812 27.1361V27.1474ZM294.303 16.6757V7.80298H298.54C299.664 7.80298 300.439 7.80296 301.114 7.89304C303.597 8.1858 305.395 9.16541 305.395 12.2281C305.395 15.2908 303.305 16.3717 300.821 16.6194C300.147 16.6757 299.315 16.6757 298.248 16.6757H294.303Z" fill="#2C5697"/>
<path d="M342.661 26.0214L345.729 35.5247H354L342.031 1.90283H332.648L320.544 35.5247H328.669L331.782 26.0214H342.661ZM337.222 8.52361L340.773 20.0312H333.614L337.222 8.52361Z" fill="#2C5697"/>
<path fill-rule="evenodd" clip-rule="evenodd" d="M32.3994 39.8486L35.7034 48.3948C35.9554 48.9263 36.0757 49.5109 36.0542 50.0989C36.0327 50.687 35.87 51.2611 35.5798 51.7727C35.279 52.1948 34.8751 52.5324 34.4068 52.7532C33.9385 52.974 33.4214 53.0706 32.9051 53.0338H52.9314C51.614 52.9972 50.3393 52.5571 49.2791 51.7727C48.0692 50.9414 47.1372 49.7643 46.6044 48.3948L43.3004 39.8486H61.2813L64.5853 48.3948C64.8373 48.9263 64.9576 49.5109 64.9361 50.0989C64.9146 50.687 64.7519 51.2611 64.4617 51.7727C64.1609 52.1948 63.757 52.5324 63.2887 52.7532C62.8204 52.974 62.3033 53.0706 61.787 53.0338H81.8133C80.4988 53 79.227 52.5595 78.1722 51.7727C76.9562 50.9452 76.0196 49.7673 75.4863 48.3948L56.8198 -0.0224609H53.9091L40.9404 33.5994L27.9716 -0.0224609H25.0722L6.40571 48.3948C5.85608 49.7643 4.91357 50.9398 3.69733 51.7727C2.62983 52.5773 1.3356 53.0227 0 53.0451H12.3619C11.832 53.0746 11.3029 52.9753 10.8196 52.7557C10.3363 52.5361 9.91311 52.2028 9.58609 51.784C9.25174 51.2926 9.0528 50.7215 9.00939 50.1283C8.96598 49.5352 9.07963 48.9411 9.33885 48.4061L12.6204 39.8599L32.3994 39.8486ZM22.4762 14.1537L31.4667 37.439H13.4857L22.4762 14.1537ZM51.3244 14.1537L60.3149 37.439H42.3339L51.3244 14.1537Z" fill="#2C5697"/>
<path d="M100.188 0H98.5469V53H100.188V0Z" fill="#2C5697"/>
</g>
<defs>
<clipPath id="clip0_184_2164">
<rect width="354" height="53" fill="white"/>
</clipPath>
</defs>
</svg>
