<svg width="116" height="14" viewBox="0 0 116 14" fill="none" xmlns="http://www.w3.org/2000/svg">
<path d="M2.53601 9.61873C2.64043 9.61873 2.72994 9.69315 2.75977 9.8122C2.93879 10.9879 3.92336 11.7766 5.45988 11.7766C6.75772 11.7766 7.71245 11.2111 7.71245 10.1843C7.71245 9.08298 6.63837 8.85975 4.44547 8.42817C2.23765 8.01147 0.28344 7.31202 0.28344 4.64814C0.28344 2.32654 2.20782 0.689514 5.17644 0.689514C8.1749 0.689514 10.1142 2.1926 10.2634 4.55884C10.2783 4.69278 10.1739 4.79696 10.0396 4.79696H7.71245C7.60803 4.79696 7.51852 4.72254 7.48868 4.61837C7.29475 3.60639 6.45936 2.92181 5.17644 2.92181C3.98303 2.92181 3.1178 3.42781 3.1178 4.43978C3.1178 5.51129 4.14712 5.73453 6.32511 6.13634C8.57768 6.55304 10.5617 7.22273 10.5468 9.85685C10.5319 12.3124 8.50309 13.9941 5.43004 13.9941C2.1929 13.9941 0.134259 12.3421 0 9.82708C0 9.69314 0.0895062 9.58897 0.223765 9.58897L2.53601 9.61873Z" fill="#59616D"/>
<path d="M25.8375 0.792908H28.2095C28.3288 0.792908 28.4332 0.897082 28.4332 1.01614V8.38275C28.4332 10.4662 29.2089 11.5824 30.9991 11.5824C32.819 11.5824 33.5798 10.4662 33.5798 8.38275V1.01614C33.5798 0.897082 33.6842 0.792908 33.8036 0.792908H36.1755C36.2948 0.792908 36.3993 0.897082 36.3993 1.01614V8.23393C36.3993 11.9544 34.5495 13.9933 30.9991 13.9933C27.4785 13.9933 25.6138 11.9544 25.6138 8.23393V1.01614C25.6138 0.897082 25.7182 0.792908 25.8375 0.792908Z" fill="#59616D"/>
<path d="M40.7256 13.6659V1.01614C40.7256 0.897082 40.83 0.792908 40.9494 0.792908H45.4992C49.5867 0.792908 52.3017 3.47168 52.3017 7.32612C52.3017 11.1657 49.5867 13.8891 45.4992 13.8891H40.9494C40.8151 13.8891 40.7256 13.7849 40.7256 13.6659ZM43.5301 11.5526H45.4992C48.0054 11.5526 49.4226 9.81142 49.4226 7.32612C49.4226 4.82594 48.0203 3.12939 45.4992 3.12939H43.5301V11.5526Z" fill="#59616D"/>
<path d="M55.9567 0.792908H58.3286C58.4479 0.792908 58.5523 0.897082 58.5523 1.01614V13.6659C58.5523 13.7849 58.4479 13.8891 58.3286 13.8891H55.9567C55.8373 13.8891 55.7329 13.7849 55.7329 13.6659V1.01614C55.7329 0.897082 55.8373 0.792908 55.9567 0.792908Z" fill="#59616D"/>
<path d="M68.4721 13.9939C64.6085 13.9939 61.968 11.1515 61.968 7.34166C61.968 3.53186 64.6085 0.689392 68.4721 0.689392C72.3358 0.689392 74.9762 3.53186 74.9762 7.34166C74.9762 11.1515 72.3358 13.9939 68.4721 13.9939ZM68.4721 11.6277C70.665 11.6277 72.0971 9.81208 72.0971 7.34166C72.0971 4.87124 70.665 3.05563 68.4721 3.05563C66.2643 3.05563 64.8322 4.87124 64.8322 7.34166C64.8322 9.81208 66.2643 11.6277 68.4721 11.6277Z" fill="#59616D"/>
<path d="M84.0761 13.9939C80.481 13.9939 77.9449 11.211 77.9449 7.34166C77.9449 3.47233 80.481 0.689392 84.0761 0.689392C87.7011 0.689392 90.2073 3.47233 90.2073 7.34166C90.2073 11.211 87.6862 13.9939 84.0761 13.9939ZM84.0761 13.0564C87.0895 13.0564 89.178 10.6752 89.178 7.32678C89.178 3.97832 87.0895 1.5972 84.0761 1.5972C81.0777 1.5972 78.9892 3.97832 78.9892 7.32678C78.9892 10.6752 81.0777 13.0564 84.0761 13.0564Z" fill="#59616D"/>
<path d="M93.6235 13.6659V1.01614C93.6235 0.897082 93.728 0.792908 93.8473 0.792908H94.4589C94.5335 0.792908 94.6081 0.822674 94.6379 0.897084L102.335 12.0586V1.01614C102.335 0.897082 102.44 0.792908 102.559 0.792908H103.111C103.231 0.792908 103.335 0.897082 103.335 1.01614V13.6659C103.335 13.7849 103.231 13.8891 103.111 13.8891H102.5C102.425 13.8891 102.35 13.8593 102.321 13.7849L94.623 2.6234V13.6659C94.623 13.7849 94.5186 13.8891 94.3992 13.8891H93.8473C93.728 13.8891 93.6235 13.7849 93.6235 13.6659Z" fill="#59616D"/>
<path d="M107.9 0.792908H115.537C115.657 0.792908 115.761 0.897082 115.761 1.01614V1.50725C115.761 1.6263 115.657 1.73048 115.537 1.73048H108.69V6.73084H114.389C114.508 6.73084 114.613 6.83502 114.613 6.95407V7.44518C114.613 7.56424 114.508 7.66841 114.389 7.66841H108.69V12.9515H115.776C115.895 12.9515 116 13.0557 116 13.1748V13.6659C116 13.7849 115.895 13.8891 115.776 13.8891H107.9C107.78 13.8891 107.676 13.7849 107.676 13.6659V1.01614C107.676 0.897082 107.765 0.792908 107.9 0.792908Z" fill="#59616D"/>
<path d="M13.1725 2.3269L18.9755 0.89822C19.1098 0.868456 19.244 0.957747 19.244 1.10657V13.1759C19.244 13.2652 19.1844 13.3545 19.0799 13.3843L16.5887 13.9944C16.4544 14.0242 16.3202 13.9349 16.3202 13.7861V4.30621C16.3202 4.17227 16.1859 4.06809 16.0516 4.09786L13.2769 4.78243C13.1427 4.81219 13.0084 4.7229 13.0084 4.57408V2.53524C13.0084 2.43107 13.083 2.34178 13.1725 2.3269Z" fill="#00AEEF"/>
<path d="M22.8243 0.2134V2.26712C22.8243 2.35642 22.7646 2.44571 22.6602 2.47547L20.5568 2.99634C20.4225 3.0261 20.2883 2.92193 20.2883 2.788V0.734271C20.2883 0.644979 20.3479 0.555688 20.4524 0.525924L22.5558 0.00505273C22.7049 -0.0247113 22.8243 0.079462 22.8243 0.2134Z" fill="#00AEEF"/>
</svg>
